<?xml version="1.0" encoding="utf-8"?>
<!-- Generator: Adobe Illustrator 27.0.1, SVG Export Plug-In . SVG Version: 6.00 Build 0)  -->
<svg version="1.1" id="Layer_1" xmlns="http://www.w3.org/2000/svg" xmlns:xlink="http://www.w3.org/1999/xlink" x="0px" y="0px"
	 viewBox="0 0 305.5 137.2" style="enable-background:new 0 0 305.5 137.2;" xml:space="preserve">
<style type="text/css">
	.st0{fill:#FFD400;}
	.st1{filter:url(#Adobe_OpacityMaskFilter);}
	.st2{opacity:0.75;mask:url(#SVGID_1_);}
	.st3{fill:#281E05;}
	.st4{fill:#FFFFFF;}
</style>
<g>
	<g>
		<g>
			<path class="st0" d="M105.4,78.8c-0.1-0.4-0.7-1.1-0.9-1.2c-0.3-0.4-1-0.8-1.5-0.6c0,0-0.2,0-0.2,0c0-0.5,0.2-0.6,0.2-0.9
				c0.2-0.6,0-1.9,0.1-2.4c-0.3-0.2-0.2-0.2-0.5-0.2c-0.2,0-0.5,0-0.6,0c-0.2-0.2,0.8-0.8,1-1.1c-0.1-0.4-0.3-0.5-0.1-1.1
				c0.1-0.5,0.6-1.2,0.7-2.1c0-0.3-0.5-1.2-0.3-1.9c0.1-0.2,0.3-0.7,0.2-1.1c-0.1-0.4-0.4-0.8-0.4-1.3c-0.1-0.5,0.4-2.5,0.4-3
				c0-0.5-0.1-0.9,0-1.4c-0.1-0.3,0-0.4-0.3-0.6c-0.2-0.2-1.2,0.4-1.5-0.2c-0.1-0.5-0.7-2.3-1-2.7c-0.2-0.3-0.5-0.4-0.6-0.6
				c-0.3-0.3-0.5-0.6-0.7-1c-0.1-0.4,0.3-1.9,0.1-3.1c-0.8-0.7-2.1-0.7-3.1-1.2c-0.3-0.1-1-0.3-1.4-0.5c-0.4-0.3-0.9-0.8-1.4-1.1
				c-0.8-0.4-1.4-0.3-1.6-1.3c-0.1-0.4,0.1-0.7,0.1-1.1c-0.1-0.9-0.9-1.8-1.3-2.5C90.3,44,90.4,43,90,42.5c-0.4-0.6-1.2-0.1-1.6-0.3
				c-0.2-0.6,0.1-1,0.2-1.3c-0.2-0.6-0.7-0.6-0.8-0.9c0.1-0.7,0.1-0.7,0.4-1.2c0.1-0.2,0.2-0.4,0.1-0.4c-0.2-0.2-0.8-0.4-1.3-0.3
				c-0.3,0.1-0.7,0.4-0.9,0.4c-1.2,0.4-1.7-0.2-2.6-0.2c-0.4,0.1-0.8,0-0.9,0.8c-0.3,0.7-0.2,1.6-0.5,2.3c-0.2,0.4-1,0.5-1.3,0.9
				c-0.2,0.9-0.5,1-0.6,1.6c-0.5,0.7-1,1.2-1.6,1.7c-0.2,0.3-0.6,0.5-0.8,0.8c-1.7,1.2-2.6,0-2.6,3.3c-0.3,0.2-0.5,0.5-0.8,0.6
				c-0.4,0.2-0.9,0.2-1.2,0.4c0,0.1-0.4,0.1-0.4,0.2c-0.4,0.3-0.9,0.5-1.3,0.8c-0.5,0.3-0.4,1.1-0.9,1.4c-0.4,0.3-1.1,0.6-1.6,0.9
				c-1.1,0.6-2.5,1.3-3.5,1.3c-0.9-0.5-1.4-0.7-1.7-1.6c-0.1-0.3-0.1-1-0.1-1.1c0.1-0.4-0.2-1.7-0.2-1.7c-0.1-0.3-0.4-0.6-0.5-0.9
				c0-0.2-0.3-0.1-0.3-0.3c-0.2-0.3-0.4-0.5-0.6-0.6c-0.5-0.1-0.8-0.1-1.1,0.1c-0.5,0.2-0.6,1.6-1,1.6c-0.7,0-1.5-0.7-2.2-0.6
				c-1.6,0.2-1.7,0.8-2.8,1.3c-0.9,0.4-2.3,0.3-3,0.2c0,0.1-1.4,0.4-1.1,0.4c-1.4,0.2-4,3.2-4.7,4.4c-1.3,0.2-2.9-0.2-3.7,0.2
				c-1,0.6-1.5,2.4-2.2,3.3c-0.2,0.2-0.4,0.5-0.6,0.6c-0.5,0.4-0.8,0.7-1.3,1.1c-0.2,0.2-0.3,0.3-0.4,0.5c-0.3,0.3-0.6,0.9-0.8,1.3
				c0.3,0.3,0.9,0.3,1.3,0.5c0.2,0.6-0.1,0.6-0.2,0.8c0.1,0.6,1,0.8,1,0.8s0.2,1.1-0.1,1.4c-0.1,0.2-0.2,0.4-0.1,0.8
				c0.2,0.2,0.4,0.5,0.5,0.6c0,0.4,0,1.3,0,1.7c0.1,0.4,0.3,0.5,0.3,0.9c0.1,0.8-0.6,0.6-0.3,1.4c0.3,0.8,1.1,0.9,1.5,1.4
				c0.3,0.4,0.5,1.2,0.8,1.6c0.1,0.2,0.5-0.2,0.5,0c0,0.9,0.7,2,0.8,2.3c0.1,0.8-0.2,0.9-0.4,1c0,0-0.1-0.2-0.1-0.2
				c0-0.1-0.4-0.1-0.1-0.2c0,0,0-0.1,0-0.1c-0.7,0.1-0.4,0.4-0.9,0.6c0.1,0.1-0.3,0.1-0.1,0.1c0,0-0.1,0.1-0.1,0.1
				c-0.2,0.1,0,0.1-0.2,0c-0.1,0.2,0.5,1,0,1.4c-0.3-0.2-0.6-0.7-0.8-1c-0.9-0.1-0.9,1-1,1.6c-0.2,0.7-0.4,0.3-0.4-0.2
				c0-0.3,0-0.5,0.1-0.5c0-0.3-0.1-0.6-0.3-0.4c-0.6,0.3-0.5,1-0.5,1.5c0.1,0.6,0.5,0.8,0.5,1.1c0,0.3-1.8-0.4-2.2,1
				c-0.1,0.2,0.2,0.7,0.3,1c0,0-0.3,0.1-0.3,0.1c-0.2,0.1-0.4-0.1-0.5,0c-0.3,0.1-0.4,0.2-0.3,0.3c-0.2,0.2-0.1,0.4-0.2,0.8
				c0,0.3-0.1,0.4,0.3,1c0.5-0.3,0.1,0.3,0.1,0.3c-0.5,0-1.1,0-1.2-0.4c-0.7,1-0.6,1.3-1.2,1.9c-0.2,0.2-0.3-0.3-0.5,0.1
				c-0.1-0.1-0.1-0.2-0.1-0.4c0,0-0.1,0-0.1,0c-0.1,0.3-0.1,0.8-0.3,1c-0.5,0.7-0.7-0.2-0.9,0.1c-0.3,0.4,0,1-0.4,1.4
				c0,0-0.2,0.1-0.2,0.1c-0.1,0-0.3,0.1-0.3,0.1c-0.4-0.2-0.5-1.4-0.5-2.4c-0.3-0.1-0.6-0.3-1-0.3c-0.4,0.4-0.4,0.7-0.6,1.3
				c-0.2,0.6-0.2,0.9-0.5,1.3c-0.7,1-2.5,1.4-3.5,2.2c-0.4,0.3-0.6,1.2-0.8,2c-0.2,0.7-0.6,1.5-0.6,1.8c0,0.1-0.3,0.3-0.5,0.6
				c0,0.1,0,0.1,0,0.2c0,0-0.1,0-0.1,0c0,0,0,0,0,0c-0.1,0.2-0.2,0.5,0,0.8c0.1,0.3,0.9,0.3,1.3,1.1c0.3,1.6-0.3,2.5-0.1,4.1
				c0.6,0.3,1.5,0.9,2.1,1.2c0.6,0.2,1.1,0.1,1.7,0.3c0.6,0.2,0.9,0.6,1.4,1c0.7-1.5-0.2-4.3,1.9-5c0.2-0.1,2.4-0.1,2.8,0
				c1.1,0.3,1.8,0.8,3,1.2c1.8,0.6,1.8,0,2.9,0.5c0.4,0.2,0.6,0.2,0.9,0.4c0,0,0.2,0.2,0.2,0.2c0.1,0,0.1,0.2,0.2,0.2
				c0,0.5-0.1,0.9,0.1,1.2c0.3,0.5,0.9,0.6,1.1,1.2c-0.1,0.8-0.4,1.3-0.8,1.6c0.1,0.4,0.3,0.9,0.5,1.4c0.2,0.7,0.3,1.3,0.4,1.3
				c0.8,0.3,2-0.5,2.7-0.8c1-0.4,3,0.1,3.3,0.3c-0.1,0.1,0.3,0.3,0.5,0.4c0,0,0.2,0,0.2,0c0.2,0,0.2,0.1,0.8-0.2
				c0.2-0.2,0.5-0.3,0.6-0.4c0.5-0.2,1.1-0.1,1.5-0.2c0.4-0.2,1.2-0.8,1.7-0.8c1.1,0,3.3,1.7,4.5,0.6c0.3-0.3,0-0.9,0.5-1.6
				c0.6-0.3,2,0.6,2.8,0.2c1.9-0.8,2.9-2.1,3.6-3.9c0.2-0.8,0.3-1.2,0.3-1.6c-0.1-1.5,0-2.6,0-3.2c0-0.2,0.2-0.8,0.2-1
				c0.2-0.9,0.2-1.3,0.8-2.7c0.2-0.5-0.1-1.7-0.2-2.2c-0.2-0.7,0-1.6,0.1-2.1c0.1-0.6-0.1-1.4,0.2-1.7c0.3-0.3,1.4,1.3,1.7,1.4
				c0.2,0.1,0.5-0.1,0.5-0.1c0.4-0.1,1,0.3,1.3,0.4c0.2,0.2,0.4,0.4,0.5,0.6c0.3,0.4,2.1,2.1,2.5,2.3c0.3,0.2,1.7,0.4,2.2,0
				c0.8-0.2,1.6-1.5,1.9-2.2c0.1,0,0.1-0.1,0.2-0.2c0.1-0.3,0.2-0.4,0.2-1c0-0.2,0.3-0.2,0.3-0.2c0.6,0.1,0.7,0.3,1,0.4
				c0.2,0.1,0.5,0.2,0.8,0.2c2.3,0.6,4.3-2,4.6-2.1c0.3-0.1,1.3,0.2,1.5,0.3c0.2,0.1,0.9,1,1.5,1.4c0.3,0.2,0.7,0.5,1,0.8
				c0.1,0.1,0.3,0.3,0.5,0.4c0.5,0.2,1.2,0.7,1.2,0.8c0.5,0.2,0.7,0.1,1.2,0.2c0.8,0,1-0.2,1.4-0.4c0.5,0,2,0.3,2.5,0.2
				c1.3-0.2,0.9-1.5,1.9-1.8c1.1-0.4,2.4,1.4,3.6,1.2c0.2,0,0.5-0.3,0.6-0.3c0.3,0,0.3,0,0.5-0.1c0.2-0.1,0.3-0.2,0.4-0.3
				c0.2-0.1,0.3-0.2,0.9-0.4c0.2-0.2,0.5-0.2,0.4-0.3c0.2-0.4,0.3-0.9,0.4-1.6c0-1.2-0.3-1.8,0-3c0.4-1.6,0.7-2.9,1.2-4.4
				C105.3,80.9,105.8,79.8,105.4,78.8z M38.6,61.8c0-0.1,0.1-0.1,0.1-0.2C38.7,61.6,38.8,61.6,38.6,61.8z M27.7,91.4
				c0-0.1,0.1-0.1,0.1-0.2C27.8,91.1,27.9,91.2,27.7,91.4z M29.5,88.1c0.1,0,0.1,0,0.2,0C29.5,88.2,29.6,88.3,29.5,88.1z M31.8,89.2
				c0.1,0,0.1,0,0.2,0C31.9,89.3,32,89.3,31.8,89.2z M22.8,97.1c0-0.1,0.1,0,0-0.1c0,0.1-0.1,0.2-0.1,0.3
				C22.7,97.2,22.7,97.2,22.8,97.1C22.8,97.1,22.8,97.1,22.8,97.1z"/>
		</g>
	</g>
	<defs>
		<filter id="Adobe_OpacityMaskFilter" filterUnits="userSpaceOnUse" x="22.5" y="38" width="83" height="72.1">
			
				<feColorMatrix  type="matrix" values="-1 0 0 0 1  0 -1 0 0 1  0 0 -1 0 1  0 0 0 1 0" color-interpolation-filters="sRGB" result="source"/>
		</filter>
	</defs>
	<mask maskUnits="userSpaceOnUse" x="22.5" y="38" width="83" height="72.1" id="SVGID_1_">
		<g class="st1">
			
				<image style="overflow:visible;" width="88" height="77" xlink:href="F2A191689172CDA2.jpg"  transform="matrix(1 0 0 1 20.5301 35.5053)">
			</image>
		</g>
	</mask>
	<g class="st2">
		<g>
			<path class="st3" d="M105.4,78.8c-0.1-0.4-0.7-1.1-0.9-1.2c-0.3-0.4-1-0.8-1.5-0.6c0,0-0.2,0-0.2,0c0-0.5,0.2-0.6,0.2-0.9
				c0.2-0.6,0-1.9,0.1-2.4c-0.3-0.2-0.2-0.2-0.5-0.2c-0.2,0-0.5,0-0.6,0c-0.2-0.2,0.8-0.8,1-1.1c-0.1-0.4-0.3-0.5-0.1-1.1
				c0.1-0.5,0.6-1.2,0.7-2.1c0-0.3-0.5-1.2-0.3-1.9c0.1-0.2,0.3-0.7,0.2-1.1c-0.1-0.4-0.4-0.8-0.4-1.3c-0.1-0.5,0.4-2.5,0.4-3
				c0-0.5-0.1-0.9,0-1.4c-0.1-0.3,0-0.4-0.3-0.6c-0.2-0.2-1.2,0.4-1.5-0.2c-0.1-0.5-0.7-2.3-1-2.7c-0.2-0.3-0.5-0.4-0.6-0.6
				c-0.3-0.3-0.5-0.6-0.7-1c-0.1-0.4,0.3-1.9,0.1-3.1c-0.8-0.7-2.1-0.7-3.1-1.2c-0.3-0.1-1-0.3-1.4-0.5c-0.4-0.3-0.9-0.8-1.4-1.1
				c-0.8-0.4-1.4-0.3-1.6-1.3c-0.1-0.4,0.1-0.7,0.1-1.1c-0.1-0.9-0.9-1.8-1.3-2.5C90.3,44,90.4,43,90,42.5c-0.4-0.6-1.2-0.1-1.6-0.3
				c-0.2-0.6,0.1-1,0.2-1.3c-0.2-0.6-0.7-0.6-0.8-0.9c0.1-0.7,0.1-0.7,0.4-1.2c0.1-0.2,0.2-0.4,0.1-0.4c-0.2-0.2-0.8-0.4-1.3-0.3
				c-0.3,0.1-0.7,0.4-0.9,0.4c-1.2,0.4-1.7-0.2-2.6-0.2c-0.4,0.1-0.8,0-0.9,0.8c-0.3,0.7-0.2,1.6-0.5,2.3c-0.2,0.4-1,0.5-1.3,0.9
				c-0.2,0.9-0.5,1-0.6,1.6c-0.5,0.7-1,1.2-1.6,1.7c-0.2,0.3-0.6,0.5-0.8,0.8c-1.7,1.2-2.6,0-2.6,3.3c-0.3,0.2-0.5,0.5-0.8,0.6
				c-0.4,0.2-0.9,0.2-1.2,0.4c0,0.1-0.4,0.1-0.4,0.2c-0.4,0.3-0.9,0.5-1.3,0.8c-0.5,0.3-0.4,1.1-0.9,1.4c-0.4,0.3-1.1,0.6-1.6,0.9
				c-1.1,0.6-2.5,1.3-3.5,1.3c-0.9-0.5-1.4-0.7-1.7-1.6c-0.1-0.3-0.1-1-0.1-1.1c0.1-0.4-0.2-1.7-0.2-1.7c-0.1-0.3-0.4-0.6-0.5-0.9
				c0-0.2-0.3-0.1-0.3-0.3c-0.2-0.3-0.4-0.5-0.6-0.6c-0.5-0.1-0.8-0.1-1.1,0.1c-0.5,0.2-0.6,1.6-1,1.6c-0.7,0-1.5-0.7-2.2-0.6
				c-1.6,0.2-1.7,0.8-2.8,1.3c-0.9,0.4-2.3,0.3-3,0.2c0,0.1-1.4,0.4-1.1,0.4c-1.4,0.2-4,3.2-4.7,4.4c-1.3,0.2-2.9-0.2-3.7,0.2
				c-1,0.6-1.5,2.4-2.2,3.3c-0.2,0.2-0.4,0.5-0.6,0.6c-0.5,0.4-0.8,0.7-1.3,1.1c-0.2,0.2-0.3,0.3-0.4,0.5c-0.3,0.3-0.6,0.9-0.8,1.3
				c0.3,0.3,0.9,0.3,1.3,0.5c0.2,0.6-0.1,0.6-0.2,0.8c0.1,0.6,1,0.8,1,0.8s0.2,1.1-0.1,1.4c-0.1,0.2-0.2,0.4-0.1,0.8
				c0.2,0.2,0.4,0.5,0.5,0.6c0,0.4,0,1.3,0,1.7c0.1,0.4,0.3,0.5,0.3,0.9c0.1,0.8-0.6,0.6-0.3,1.4c0.3,0.8,1.1,0.9,1.5,1.4
				c0.3,0.4,0.5,1.2,0.8,1.6c0.1,0.2,0.5-0.2,0.5,0c0,0.9,0.7,2,0.8,2.3c0.1,0.8-0.2,0.9-0.4,1c0,0-0.1-0.2-0.1-0.2
				c0-0.1-0.4-0.1-0.1-0.2c0,0,0-0.1,0-0.1c-0.7,0.1-0.4,0.4-0.9,0.6c0.1,0.1-0.3,0.1-0.1,0.1c0,0-0.1,0.1-0.1,0.1
				c-0.2,0.1,0,0.1-0.2,0c-0.1,0.2,0.5,1,0,1.4c-0.3-0.2-0.6-0.7-0.8-1c-0.9-0.1-0.9,1-1,1.6c-0.2,0.7-0.4,0.3-0.4-0.2
				c0-0.3,0-0.5,0.1-0.5c0-0.3-0.1-0.6-0.3-0.4c-0.6,0.3-0.5,1-0.5,1.5c0.1,0.6,0.5,0.8,0.5,1.1c0,0.3-1.8-0.4-2.2,1
				c-0.1,0.2,0.2,0.7,0.3,1c0,0-0.3,0.1-0.3,0.1c-0.2,0.1-0.4-0.1-0.5,0c-0.3,0.1-0.4,0.2-0.3,0.3c-0.2,0.2-0.1,0.4-0.2,0.8
				c0,0.3-0.1,0.4,0.3,1c0.5-0.3,0.1,0.3,0.1,0.3c-0.5,0-1.1,0-1.2-0.4c-0.7,1-0.6,1.3-1.2,1.9c-0.2,0.2-0.3-0.3-0.5,0.1
				c-0.1-0.1-0.1-0.2-0.1-0.4c0,0-0.1,0-0.1,0c-0.1,0.3-0.1,0.8-0.3,1c-0.5,0.7-0.7-0.2-0.9,0.1c-0.3,0.4,0,1-0.4,1.4
				c0,0-0.2,0.1-0.2,0.1c-0.1,0-0.3,0.1-0.3,0.1c-0.4-0.2-0.5-1.4-0.5-2.4c-0.3-0.1-0.6-0.3-1-0.3c-0.4,0.4-0.4,0.7-0.6,1.3
				c-0.2,0.6-0.2,0.9-0.5,1.3c-0.7,1-2.5,1.4-3.5,2.2c-0.4,0.3-0.6,1.2-0.8,2c-0.2,0.7-0.6,1.5-0.6,1.8c0,0.1-0.3,0.3-0.5,0.6
				c0,0.1,0,0.1,0,0.2c0,0-0.1,0-0.1,0c0,0,0,0,0,0c-0.1,0.2-0.2,0.5,0,0.8c0.1,0.3,0.9,0.3,1.3,1.1c0.3,1.6-0.3,2.5-0.1,4.1
				c0.6,0.3,1.5,0.9,2.1,1.2c0.6,0.2,1.1,0.1,1.7,0.3c0.6,0.2,0.9,0.6,1.4,1c0.7-1.5-0.2-4.3,1.9-5c0.2-0.1,2.4-0.1,2.8,0
				c1.1,0.3,1.8,0.8,3,1.2c1.8,0.6,1.8,0,2.9,0.5c0.4,0.2,0.6,0.2,0.9,0.4c0,0,0.2,0.2,0.2,0.2c0.1,0,0.1,0.2,0.2,0.2
				c0,0.5-0.1,0.9,0.1,1.2c0.3,0.5,0.9,0.6,1.1,1.2c-0.1,0.8-0.4,1.3-0.8,1.6c0.1,0.4,0.3,0.9,0.5,1.4c0.2,0.7,0.3,1.3,0.4,1.3
				c0.8,0.3,2-0.5,2.7-0.8c1-0.4,3,0.1,3.3,0.3c-0.1,0.1,0.3,0.3,0.5,0.4c0,0,0.2,0,0.2,0c0.2,0,0.2,0.1,0.8-0.2
				c0.2-0.2,0.5-0.3,0.6-0.4c0.5-0.2,1.1-0.1,1.5-0.2c0.4-0.2,1.2-0.8,1.7-0.8c1.1,0,3.3,1.7,4.5,0.6c0.3-0.3,0-0.9,0.5-1.6
				c0.6-0.3,2,0.6,2.8,0.2c1.9-0.8,2.9-2.1,3.6-3.9c0.2-0.8,0.3-1.2,0.3-1.6c-0.1-1.5,0-2.6,0-3.2c0-0.2,0.2-0.8,0.2-1
				c0.2-0.9,0.2-1.3,0.8-2.7c0.2-0.5-0.1-1.7-0.2-2.2c-0.2-0.7,0-1.6,0.1-2.1c0.1-0.6-0.1-1.4,0.2-1.7c0.3-0.3,1.4,1.3,1.7,1.4
				c0.2,0.1,0.5-0.1,0.5-0.1c0.4-0.1,1,0.3,1.3,0.4c0.2,0.2,0.4,0.4,0.5,0.6c0.3,0.4,2.1,2.1,2.5,2.3c0.3,0.2,1.7,0.4,2.2,0
				c0.8-0.2,1.6-1.5,1.9-2.2c0.1,0,0.1-0.1,0.2-0.2c0.1-0.3,0.2-0.4,0.2-1c0-0.2,0.3-0.2,0.3-0.2c0.6,0.1,0.7,0.3,1,0.4
				c0.2,0.1,0.5,0.2,0.8,0.2c2.3,0.6,4.3-2,4.6-2.1c0.3-0.1,1.3,0.2,1.5,0.3c0.2,0.1,0.9,1,1.5,1.4c0.3,0.2,0.7,0.5,1,0.8
				c0.1,0.1,0.3,0.3,0.5,0.4c0.5,0.2,1.2,0.7,1.2,0.8c0.5,0.2,0.7,0.1,1.2,0.2c0.8,0,1-0.2,1.4-0.4c0.5,0,2,0.3,2.5,0.2
				c1.3-0.2,0.9-1.5,1.9-1.8c1.1-0.4,2.4,1.4,3.6,1.2c0.2,0,0.5-0.3,0.6-0.3c0.3,0,0.3,0,0.5-0.1c0.2-0.1,0.3-0.2,0.4-0.3
				c0.2-0.1,0.3-0.2,0.9-0.4c0.2-0.2,0.5-0.2,0.4-0.3c0.2-0.4,0.3-0.9,0.4-1.6c0-1.2-0.3-1.8,0-3c0.4-1.6,0.7-2.9,1.2-4.4
				C105.3,80.9,105.8,79.8,105.4,78.8z M38.6,61.8c0-0.1,0.1-0.1,0.1-0.2C38.7,61.6,38.8,61.6,38.6,61.8z M27.7,91.4
				c0-0.1,0.1-0.1,0.1-0.2C27.8,91.1,27.9,91.2,27.7,91.4z M29.5,88.1c0.1,0,0.1,0,0.2,0C29.5,88.2,29.6,88.3,29.5,88.1z M31.8,89.2
				c0.1,0,0.1,0,0.2,0C31.9,89.3,32,89.3,31.8,89.2z M22.8,97.1c0-0.1,0.1,0,0-0.1c0,0.1-0.1,0.2-0.1,0.3
				C22.7,97.2,22.7,97.2,22.8,97.1C22.8,97.1,22.8,97.1,22.8,97.1z"/>
		</g>
	</g>
</g>
<g>
	<path d="M53.7,62.4v3.5h1.6v-3.5h1.4v8.4h-1.4v-3.6h-1.6v3.6h-1.4v-8.4H53.7z"/>
	<path d="M57.9,70.8v-8.4h3.7v1.2h-2.3v2.3h1.9v1.2h-1.9v2.4h2.3v1.2H57.9z"/>
	<path d="M65.3,68.9h-1.5l-0.3,1.9h-1.3l1.6-8.4h1.8l1.6,8.4h-1.4L65.3,68.9z M65.1,67.8l-0.6-3.7L64,67.8H65.1z"/>
	<path d="M70.9,70.8l-1.1-3.3h-0.7v3.3h-1.4v-8.4h2.2c1.3,0,2.1,0.5,2.1,1.8v1.5c0,0.8-0.3,1.3-0.9,1.6l1.2,3.6H70.9z M69.1,66.3
		h0.7c0.5,0,0.8-0.2,0.8-0.8v-1.1c0-0.6-0.3-0.8-0.8-0.8h-0.7V66.3z"/>
	<path d="M76.8,63.6h-1.4v7.2H74v-7.2h-1.4v-1.2h4.2V63.6z"/>
	<path d="M80.1,65.4v-1.2c0-0.5-0.3-0.7-0.7-0.7c-0.4,0-0.7,0.2-0.7,0.7v0.6c0,0.4,0.1,0.6,0.5,0.9l1,0.6c0.8,0.5,1.3,0.8,1.3,1.7
		v1.2c0,1.3-0.8,1.8-2.1,1.8h0c-1.3,0-2.1-0.4-2.1-1.8v-1.5h1.4V69c0,0.5,0.3,0.7,0.7,0.7s0.7-0.2,0.7-0.7v-0.7
		c0-0.4-0.1-0.6-0.6-0.9l-1-0.6c-0.8-0.5-1.3-0.9-1.3-1.7v-1.1c0-1.2,0.9-1.7,2.1-1.7h0c1.2,0,2.1,0.5,2.1,1.7v1.4H80.1z"/>
	<path d="M86.5,62.3L86.5,62.3c1.4,0,2.2,0.5,2.2,1.8v5c0,1.3-0.8,1.8-2.1,1.8h-0.1c-1.3,0-2.1-0.5-2.1-1.8v-5
		C84.3,62.8,85.2,62.3,86.5,62.3z M86.5,69.7c0.5,0,0.8-0.2,0.8-0.8v-4.6c0-0.6-0.3-0.8-0.8-0.8s-0.8,0.2-0.8,0.8v4.6
		C85.7,69.5,86,69.7,86.5,69.7z"/>
	<path d="M89.8,62.4h3.6v1.2h-2.2V66h1.9v1.2h-1.9v3.6h-1.4V62.4z"/>
	<path d="M55,80.9h-1.5l-0.3,1.9h-1.3l1.6-8.4h1.8l1.6,8.4h-1.4L55,80.9z M54.8,79.8l-0.6-3.7l-0.6,3.7H54.8z"/>
	<path d="M57.4,74.4h3.6v1.2h-2.2V78h1.9v1.2h-1.9v3.6h-1.4V74.4z"/>
	<path d="M65,82.8L64,79.5h-0.7v3.3h-1.4v-8.4H64c1.3,0,2.1,0.5,2.1,1.8v1.5c0,0.8-0.3,1.3-0.9,1.6l1.2,3.6H65z M63.3,78.3H64
		c0.5,0,0.8-0.2,0.8-0.8v-1.1c0-0.6-0.3-0.8-0.8-0.8h-0.7V78.3z"/>
	<path d="M67.3,82.8v-8.4h1.4v8.4H67.3z"/>
	<path d="M74.2,81.1c0,1.3-0.8,1.8-2.1,1.8h0c-1.3,0-2.1-0.5-2.1-1.8v-5c0-1.2,0.8-1.8,2.1-1.8h0c1.3,0,2.1,0.5,2.1,1.8v1.5h-1.4
		v-1.3c0-0.6-0.3-0.8-0.7-0.8c-0.4,0-0.7,0.2-0.7,0.8v4.6c0,0.6,0.3,0.8,0.7,0.8c0.4,0,0.7-0.2,0.7-0.8v-1.5h1.4V81.1z"/>
	<path d="M77.9,80.9h-1.5l-0.3,1.9h-1.3l1.6-8.4H78l1.6,8.4h-1.4L77.9,80.9z M77.7,79.8l-0.6-3.7l-0.6,3.7H77.7z"/>
</g>
<g>
	<path class="st4" d="M142.5,71.4c0,5-3.1,6.8-8,6.8h-0.2c-4.9,0-8-1.8-8-6.8V45.7h5.3v24.9c0,2.3,1,2.9,2.8,2.9s2.8-0.6,2.8-2.9
		V45.7h5.3V71.4z"/>
	<path class="st4" d="M147,77.9V45.7h5.3l6.8,19.9V45.7h4.9v32.2h-5.1l-7-20.9v20.9H147z"/>
	<path class="st4" d="M168.7,77.9V45.7h5.3v32.2H168.7z"/>
	<path class="st4" d="M188.8,77.9h-5.9l-6.1-32.2h5.4l3.7,23.8l3.7-23.8h5.1L188.8,77.9z"/>
	<path class="st4" d="M197.5,77.9V45.7h14.1v4.7h-8.8v8.8h7.3v4.7h-7.3v9.3h8.9v4.7H197.5z"/>
	<path class="st4" d="M227.6,77.9L223.5,65h-2.7v12.8h-5.3V45.7h8.3c4.9,0,8.1,1.9,8.1,6.8v5.7c0,3.1-1.3,5-3.5,6l4.6,13.6H227.6z
		 M220.9,60.4h2.8c1.7,0,2.9-0.6,2.9-2.9v-4.2c0-2.3-1.2-2.9-2.9-2.9h-2.8V60.4z"/>
	<path class="st4" d="M246.1,57.2v-4.5c0-2-1.1-2.8-2.7-2.8c-1.6,0-2.7,0.7-2.7,2.8v2.2c0,1.7,0.6,2.4,2.1,3.3l3.8,2.1
		c3.1,1.7,4.9,3.2,4.9,6.6v4.6c0,5-3.1,6.7-7.9,6.7h-0.1c-4.9,0-7.9-1.7-7.9-6.7v-5.6h5.2v4.9c0,2,1.1,2.8,2.8,2.8
		c1.6,0,2.8-0.9,2.8-2.8v-2.5c0-1.7-0.5-2.5-2.1-3.4l-3.7-2.1c-3.1-1.8-4.9-3.3-4.9-6.6V52c0-4.8,3.5-6.6,7.9-6.6h0.1
		c4.4,0,7.9,1.8,7.9,6.6v5.2H246.1z"/>
	<path class="st4" d="M265.2,70.7h-5.9l-1.1,7.2H253l6-32.2h6.7l6.1,32.2h-5.4L265.2,70.7z M264.5,66.3L262.3,52L260,66.3H264.5z"/>
	<path class="st4" d="M288,77.9h-13.5V45.7h5.3v27.4h8.2V77.9z"/>
</g>
<g>
	<path class="st4" d="M129.1,82.6h2.6l-1.7,8.7c-0.3,1.4-0.8,2.4-1.5,3c-0.7,0.7-1.7,1-2.9,1c-0.8,0-1.6-0.2-2.6-0.6l0.4-2
		c0.8,0.2,1.5,0.3,2.1,0.3c0.5,0,0.9-0.2,1.2-0.5c0.3-0.3,0.5-0.8,0.6-1.5L129.1,82.6z"/>
	<path class="st4" d="M137.7,95.3c-1.6,0-2.9-0.5-3.8-1.4s-1.4-2.2-1.4-3.8c0-1.5,0.3-2.8,0.9-4c0.6-1.2,1.4-2.2,2.4-2.9
		c1-0.7,2.2-1.1,3.6-1.1c1.6,0,2.9,0.5,3.8,1.4s1.4,2.2,1.4,3.8c0,1.5-0.3,2.8-0.8,4c-0.6,1.2-1.4,2.1-2.4,2.9
		C140.3,95,139.1,95.3,137.7,95.3z M137.9,93.2c0.7,0,1.4-0.2,2-0.7s1.1-1.1,1.4-2c0.4-0.9,0.5-1.8,0.5-2.9c0-1-0.2-1.8-0.7-2.4
		c-0.5-0.6-1.1-0.8-1.9-0.8c-0.5,0-1,0.1-1.5,0.4s-0.9,0.6-1.3,1.1s-0.7,1.1-0.9,1.8c-0.2,0.7-0.3,1.5-0.3,2.3c0,1,0.2,1.8,0.7,2.3
		S137.1,93.2,137.9,93.2z"/>
	<path class="st4" d="M155.4,82.6h2.6l-1.6,8.2c-0.3,1.5-0.9,2.6-1.9,3.4c-1,0.8-2.2,1.2-3.8,1.2c-0.9,0-1.6-0.1-2.2-0.4
		c-0.6-0.3-1.1-0.7-1.5-1.3s-0.5-1.2-0.5-2c0-0.7,0.1-1.8,0.4-3.1l1.2-6h2.6l-1.2,6c-0.2,0.8-0.3,1.4-0.3,1.8s-0.1,0.7-0.1,0.9
		c0,0.6,0.2,1.1,0.5,1.4s0.9,0.5,1.5,0.5c1.5,0,2.4-0.8,2.7-2.4L155.4,82.6z"/>
	<path class="st4" d="M165.6,95l-1.8-4.8h-0.1h-1.5l-0.9,4.8h-2.6l2.4-12.5h4c1.3,0,2.3,0.3,3,0.9s1.1,1.4,1.1,2.5
		c0,0.9-0.3,1.7-0.8,2.4s-1.2,1.2-2.2,1.5l2,5.2H165.6z M162.5,88.4h1.4c0.8,0,1.5-0.2,2-0.6c0.5-0.4,0.7-0.9,0.7-1.7
		c0-1.1-0.7-1.6-2-1.6h-1.3L162.5,88.4z"/>
	<path class="st4" d="M177.3,95l-3.2-8.9l-1.7,8.9h-2.3l2.4-12.5h2.8l3.2,8.8l1.7-8.8h2.3L180.1,95H177.3z"/>
	<path class="st4" d="M183.3,95l2.4-12.5h8l-0.4,2.1h-5.3l-0.6,3h4.4l-0.4,2.1h-4.4l-0.6,3.3h5.3l-0.4,2.1H183.3z"/>
	<path class="st4" d="M195.9,95l0.9-4.6l-2.5-7.9h2.7l1.4,5.8l3.7-5.8h2.9l-5.6,7.9l-0.9,4.6H195.9z"/>
	<path class="st4" d="M215.7,95l-1.8-4.8h-0.1h-1.5l-0.9,4.8h-2.6l2.4-12.5h4c1.3,0,2.3,0.3,3,0.9s1.1,1.4,1.1,2.5
		c0,0.9-0.3,1.7-0.8,2.4s-1.2,1.2-2.2,1.5l2,5.2H215.7z M212.6,88.4h1.4c0.8,0,1.5-0.2,2-0.6c0.5-0.4,0.7-0.9,0.7-1.7
		c0-1.1-0.7-1.6-2-1.6h-1.3L212.6,88.4z"/>
	<path class="st4" d="M228.7,95l-0.2-8.9l-3.6,8.9h-2.8l-0.9-12.5h2.8l0.1,9.4l3.6-9.1h2.9l0.1,9.2l3.7-9.5h2.9L231.5,95H228.7z"/>
	<path class="st4" d="M243.4,95l-0.3-2.9h-4.2l-1.4,2.9h-2.8l6.7-12.5h2.9l1.8,12.5H243.4z M239.8,90.3h3.1l-0.5-5.3L239.8,90.3z"/>
	<path class="st4" d="M254.9,95l-3.2-8.9l-1.7,8.9h-2.3l2.4-12.5h2.8l3.2,8.8l1.7-8.8h2.3L257.6,95H254.9z"/>
	<path class="st4" d="M260.8,95l2.4-12.5h4.1c1.6,0,2.9,0.4,3.8,1.3s1.3,2.1,1.3,3.6c0,1.4-0.3,2.6-0.9,3.8
		c-0.6,1.1-1.4,2.1-2.5,2.7c-1.1,0.7-2.3,1-3.7,1H260.8z M265.4,84.6l-1.6,8.4h1.6c0.8,0,1.5-0.2,2.2-0.7c0.7-0.4,1.2-1.1,1.6-1.9
		s0.6-1.7,0.6-2.8c0-1-0.2-1.8-0.7-2.3c-0.4-0.5-1.1-0.8-1.9-0.8H265.4z"/>
	<path class="st4" d="M280.5,95l-0.3-2.9H276l-1.4,2.9h-2.8l6.7-12.5h2.9l1.8,12.5H280.5z M276.9,90.3h3.1l-0.5-5.3L276.9,90.3z"/>
</g>
</svg>
